<svg width="48" height="48" xmlns="http://www.w3.org/2000/svg" xmlns:svg="http://www.w3.org/2000/svg">
 <defs>
  <symbol height="48px" id="svg_13" viewBox="0 0 48 48" width="48px" xmlns="http://www.w3.org/2000/svg">
   <path d="m23.7,37.56l1.18,0c0.84,0 1.63,-0.39 2.14,-1.06l7.48,-9.85l7.49,9.85c0.5,0.67 1.29,1.06 2.14,1.06l1.17,0l-9.54,-12.56l9.12,-12l-1.18,0c-0.84,0 -1.63,0.39 -2.14,1.06l-7.06,9.29l-7.06,-9.29c-0.51,-0.67 -1.3,-1.06 -2.14,-1.06l-1.18,0l9.12,12l-9.54,12.56z" fill="#212121"/>
   <path d="m24,26l0,-3c0,-6.68 -5.95,-11.96 -12.83,-10.85c-5.36,0.86 -9.17,5.71 -9.17,11.13l0,0.72l0,2l0,0.14c0,6.56 4.78,11.79 10.87,11.86c5.09,0.06 9.39,-3.34 10.71,-8l-1.03,0c-0.62,0 -1.18,0.36 -1.45,0.91c-1.74,3.6 -5.79,5.87 -10.23,4.85c-4.09,-0.95 -6.87,-4.78 -6.87,-8.98l0,-0.78l20,0zm-20,-2.29c0,-4.71 2.8,-8.56 6.92,-9.48c5.88,-1.31 11.08,3.12 11.08,8.77l0,1l-18,0l0,-0.29z" fill="#212121"/>
  </symbol>
 </defs>
 <g class="layer" display="inline">
  <circle cx="24.03" cy="23.97" fill="#ffffff" id="svg_15" r="23.28" stroke="#000000" stroke-width="0"/>
  <use href="#svg_13" id="svg_14" transform="matrix(1 0 0 1 0 0) matrix(0.793408 0 0 0.793408 4.91313 4.29756)"/>
 </g>
</svg>