<svg width="48" height="48" xmlns="http://www.w3.org/2000/svg" xmlns:svg="http://www.w3.org/2000/svg">
 <defs>
  <symbol height="60px" id="svg_3" viewBox="0 0 30 30" width="60px" xmlns="http://www.w3.org/2000/svg">
   <path d="m15,3c-6.63,0 -12,5.37 -12,12c0,5.62 3.87,10.33 9.09,11.63c-0.05,-0.16 -0.09,-0.35 -0.09,-0.58l0,-2.05c-0.49,0 -1.3,0 -1.51,0c-0.82,0 -1.55,-0.36 -1.9,-1.01c-0.4,-0.73 -0.46,-1.85 -1.44,-2.53c-0.29,-0.23 -0.07,-0.48 0.27,-0.45c0.61,0.17 1.12,0.6 1.6,1.22c0.48,0.63 0.7,0.77 1.6,0.77c0.43,0 1.08,-0.02 1.69,-0.12c0.33,-0.83 0.89,-1.6 1.59,-1.96c-4,-0.41 -5.91,-2.4 -5.91,-5.1c0,-1.16 0.5,-2.29 1.34,-3.23c-0.28,-0.94 -0.62,-2.86 0.11,-3.59c1.79,0 2.88,1.17 3.14,1.48c0.9,-0.31 1.88,-0.48 2.91,-0.48c1.04,0 2.03,0.17 2.93,0.48c0.26,-0.31 1.34,-1.48 3.15,-1.48c0.73,0.73 0.38,2.66 0.1,3.59c0.83,0.95 1.33,2.07 1.33,3.23c0,2.7 -1.91,4.68 -5.9,5.1c1.1,0.57 1.9,2.18 1.9,3.39l0,2.74c0,0.1 -0.02,0.18 -0.04,0.26c4.68,-1.63 8.04,-6.07 8.04,-11.31c0,-6.63 -5.37,-12 -12,-12z"/>
  </symbol>
 </defs>
 <g class="layer" display="inline">
  <circle cx="24.09" cy="24.16" fill="#fffcfc" id="svg_15" r="22.83" stroke="#000000" stroke-width="0"/>
  <use href="#svg_3" id="svg_4" transform="matrix(1 0 0 1 0 0) matrix(0.97313 0 0 0.97313 -5.09776 -5.24401)"/>
 </g>
</svg>