<svg width="48" height="48" xmlns="http://www.w3.org/2000/svg" xmlns:svg="http://www.w3.org/2000/svg">
 <defs>
  <symbol height="48px" id="svg_5" viewBox="0 0 48 48" width="48px" xmlns="http://www.w3.org/2000/svg">
   <path d="m18.97,31.5c0,0.83 -0.67,1.5 -1.5,1.5s-1.5,-0.67 -1.5,-1.5l0,-14c0,-0.65 0.43,-1.23 1.05,-1.43c0.62,-0.2 1.3,0.03 1.68,0.56l16.77,23.71c5.15,-3.63 8.53,-9.61 8.53,-16.34c0,-11 -9,-20 -20,-20s-20,9 -20,20s9,20 20,20c3.19,0 6.21,-0.78 8.89,-2.12l-13.92,-19.66l0,9.28zm10,-15c0,-0.83 0.67,-1.5 1.5,-1.5s1.5,0.67 1.5,1.5l0,13.84l-3,-4.23l0,-9.61z" fill="#212121"/>
  </symbol>
 </defs>
 <g class="layer" display="inline">
  <circle cx="23.97" cy="24.1" fill="#ffffff" id="svg_4" r="23.06" stroke="#000000" stroke-width="0"/>
  <use fill="#ffffff" href="#svg_5" id="svg_6" transform="matrix(1.19677 0 0 1.19677 -4.73208 -4.73208)"/>
 </g>
</svg>